Oxygen-Light.ufo
<glyph name="numbersign" format="1">
  <advance width="1108"/>
  <unicode hex="0023"/>
  <outline>
    <contour>
      <point x="180" y="-1" type="line"/>
      <point x="254" y="438" type="line"/>
      <point x="109" y="438" type="line"/>
      <point x="119" y="529" type="line"/>
      <point x="270" y="529" type="line"/>
      <point x="348" y="975" type="line"/>
      <point x="185" y="975" type="line"/>
      <point x="195" y="1065" type="line"/>
      <point x="363" y="1065" type="line"/>
      <point x="437" y="1488" type="line"/>
      <point x="541" y="1488" type="line"/>
      <point x="467" y="1065" type="line"/>
      <point x="737" y="1065" type="line"/>
      <point x="811" y="1488" type="line"/>
      <point x="915" y="1488" type="line"/>
      <point x="841" y="1065" type="line"/>
      <point x="984" y="1065" type="line"/>
      <point x="969" y="976" type="line"/>
      <point x="826" y="976" type="line"/>
      <point x="747" y="529" type="line"/>
      <point x="902" y="529" type="line"/>
      <point x="892" y="438" type="line"/>
      <point x="732" y="438" type="line"/>
      <point x="655" y="-1" type="line"/>
      <point x="550" y="-1" type="line"/>
      <point x="628" y="438" type="line"/>
      <point x="358" y="438" type="line"/>
      <point x="281" y="-1" type="line"/>
    </contour>
    <contour>
      <point x="374" y="529" type="line"/>
      <point x="644" y="529" type="line"/>
      <point x="721" y="976" type="line"/>
      <point x="452" y="976" type="line"/>
    </contour>
  </outline>
</glyph>
<glyph name="plus" format="1">
  <advance width="1101"/>
  <unicode hex="002b"/>
  <outline>
    <contour>
      <point x="500.5" y="157" type="line" smooth="no"/>
      <point x="500.5" y="600" type="line" smooth="no"/>
      <point x="108.5" y="600" type="line" smooth="no"/>
      <point x="108.5" y="700" type="line" smooth="no"/>
      <point x="501.5" y="700" type="line" smooth="no"/>
      <point x="501.5" y="1135" type="line" smooth="no"/>
      <point x="610.5" y="1135" type="line" smooth="no"/>
      <point x="610.5" y="700" type="line" smooth="no"/>
      <point x="992.5" y="700" type="line" smooth="no"/>
      <point x="992.5" y="600" type="line" smooth="no"/>
      <point x="609.5" y="600" type="line" smooth="no"/>
      <point x="609.5" y="157" type="line" smooth="no"/>
    </contour>
  </outline>
</glyph>
<glyph name="comma" format="1">
  <advance width="504"/>
  <unicode hex="002c"/>
  <outline>
    <contour>
      <point x="130" y="-275" type="line" smooth="no"/>
      <point x="210" y="235" type="line" smooth="no"/>
      <point x="339" y="235" type="line" smooth="no"/>
      <point x="339" y="194" type="line" smooth="no"/>
      <point x="307" y="54"/>
      <point x="248" y="-136"/>
      <point x="202" y="-275" type="curve" smooth="no"/>
    </contour>
  </outline>
</glyph>
<glyph name="zero" format="1">
  <advance width="1216"/>
  <unicode hex="0030"/>
  <outline>
    <contour>
      <point x="597" y="-24" type="curve" smooth="yes"/>
      <point x="260" y="-24"/>
      <point x="111" y="291"/>
      <point x="111" y="748" type="curve" smooth="yes"/>
      <point x="111" y="1234"/>
      <point x="279" y="1514"/>
      <point x="597" y="1514" type="curve" smooth="yes"/>
      <point x="915" y="1514"/>
      <point x="1079" y="1235"/>
      <point x="1079" y="748" type="curve" smooth="yes"/>
      <point x="1079" y="291"/>
      <point x="933" y="-24"/>
    </contour>
    <contour>
      <point x="596" y="83" type="curve" smooth="yes"/>
      <point x="823" y="83"/>
      <point x="943" y="343"/>
      <point x="943" y="753" type="curve" smooth="yes"/>
      <point x="943" y="1154"/>
      <point x="826" y="1407"/>
      <point x="597" y="1407" type="curve" smooth="yes"/>
      <point x="367" y="1407"/>
      <point x="251" y="1151"/>
      <point x="251" y="752" type="curve" smooth="yes"/>
      <point x="251" y="342"/>
      <point x="368" y="83"/>
    </contour>
  </outline>
</glyph>
<glyph name="one" format="1">
  <advance width="599"/>
  <unicode hex="0031"/>
  <outline>
    <contour>
      <point x="274" y="0" type="line" smooth="no"/>
      <point x="274" y="1356" type="line" smooth="no"/>
      <point x="235" y="1328"/>
      <point x="131" y="1275"/>
      <point x="34" y="1241" type="curve" smooth="no"/>
      <point x="34" y="1349" type="line" smooth="no"/>
      <point x="121" y="1389"/>
      <point x="246" y="1447"/>
      <point x="297" y="1488" type="curve" smooth="no"/>
      <point x="402" y="1488" type="line" smooth="no"/>
      <point x="402" y="0" type="line" smooth="no"/>
    </contour>
  </outline>
</glyph>
<glyph name="five" format="1">
  <advance width="1195"/>
  <unicode hex="0035"/>
  <outline>
    <contour>
      <point x="563" y="-24" type="curve" smooth="yes"/>
      <point x="388" y="-24"/>
      <point x="242" y="20"/>
      <point x="129" y="111" type="curve"/>
      <point x="174" y="207" type="line"/>
      <point x="261" y="137"/>
      <point x="382" y="83"/>
      <point x="569" y="83" type="curve" smooth="yes"/>
      <point x="787" y="83"/>
      <point x="928" y="244"/>
      <point x="928" y="478" type="curve" smooth="yes"/>
      <point x="928" y="676"/>
      <point x="800" y="823"/>
      <point x="634" y="823" type="curve" smooth="yes"/>
      <point x="507" y="823"/>
      <point x="437" y="789"/>
      <point x="335" y="711" type="curve"/>
      <point x="210" y="720" type="line"/>
      <point x="244" y="1488" type="line"/>
      <point x="1005" y="1488" type="line"/>
      <point x="992" y="1377" type="line"/>
      <point x="353" y="1377" type="line"/>
      <point x="323" y="832" type="line"/>
      <point x="416" y="902"/>
      <point x="510" y="929"/>
      <point x="610" y="931" type="curve" smooth="yes"/>
      <point x="894" y="936"/>
      <point x="1067" y="722"/>
      <point x="1067" y="483" type="curve" smooth="yes"/>
      <point x="1067" y="179"/>
      <point x="873" y="-24"/>
    </contour>
  </outline>
</glyph>
<glyph name="eight" format="1">
  <advance width="1196"/>
  <unicode hex="0038"/>
  <outline>
    <contour>
      <point x="601" y="-24" type="curve" smooth="yes"/>
      <point x="340" y="-24"/>
      <point x="121" y="119"/>
      <point x="121" y="384" type="curve" smooth="yes"/>
      <point x="121" y="577"/>
      <point x="245" y="742"/>
      <point x="466" y="803" type="curve"/>
      <point x="270" y="856"/>
      <point x="153" y="972"/>
      <point x="153" y="1144" type="curve" smooth="yes"/>
      <point x="153" y="1374"/>
      <point x="338" y="1514"/>
      <point x="602" y="1514" type="curve" smooth="yes"/>
      <point x="863" y="1514"/>
      <point x="1043" y="1375"/>
      <point x="1043" y="1144" type="curve" smooth="yes"/>
      <point x="1043" y="970"/>
      <point x="929" y="856"/>
      <point x="747" y="803" type="curve"/>
      <point x="952" y="743"/>
      <point x="1076" y="579"/>
      <point x="1076" y="384" type="curve" smooth="yes"/>
      <point x="1076" y="120"/>
      <point x="863" y="-24"/>
    </contour>
    <contour>
      <point x="601" y="83" type="curve" smooth="yes"/>
      <point x="791" y="83"/>
      <point x="941" y="196"/>
      <point x="941" y="378" type="curve" smooth="yes"/>
      <point x="941" y="577"/>
      <point x="800" y="700"/>
      <point x="601" y="750" type="curve"/>
      <point x="405" y="700"/>
      <point x="256" y="578"/>
      <point x="256" y="379" type="curve" smooth="yes"/>
      <point x="256" y="196"/>
      <point x="410" y="83"/>
    </contour>
    <contour>
      <point x="601" y="856" type="curve"/>
      <point x="808" y="897"/>
      <point x="912" y="992"/>
      <point x="912" y="1146" type="curve" smooth="yes"/>
      <point x="912" y="1321"/>
      <point x="761" y="1407"/>
      <point x="601" y="1407" type="curve" smooth="yes"/>
      <point x="441" y="1407"/>
      <point x="286" y="1321"/>
      <point x="286" y="1146" type="curve" smooth="yes"/>
      <point x="286" y="993"/>
      <point x="393" y="897"/>
    </contour>
  </outline>
</glyph>
<glyph name="nine" format="1">
  <advance width="1142"/>
  <unicode hex="0039"/>
  <outline>
    <contour>
      <point x="265" y="0" type="line"/>
      <point x="824" y="677" type="line"/>
      <point x="751" y="630"/>
      <point x="650" y="596"/>
      <point x="557" y="596" type="curve" smooth="yes"/>
      <point x="317" y="596"/>
      <point x="93" y="769"/>
      <point x="93" y="1046" type="curve" smooth="yes"/>
      <point x="93" y="1299"/>
      <point x="278" y="1514"/>
      <point x="581" y="1514" type="curve" smooth="yes"/>
      <point x="899" y="1514"/>
      <point x="1056" y="1285"/>
      <point x="1056" y="1030" type="curve" smooth="yes"/>
      <point x="1056" y="825"/>
      <point x="1003" y="733"/>
      <point x="824" y="478" type="curve" smooth="yes"/>
      <point x="824" y="477"/>
      <point x="428" y="0"/>
      <point x="428" y="0" type="curve"/>
    </contour>
    <contour>
      <point x="577" y="704" type="curve" smooth="yes"/>
      <point x="822" y="704"/>
      <point x="932" y="873"/>
      <point x="932" y="1050" type="curve" smooth="yes"/>
      <point x="932" y="1234"/>
      <point x="814" y="1407"/>
      <point x="584" y="1407" type="curve" smooth="yes"/>
      <point x="356" y="1407"/>
      <point x="219" y="1227"/>
      <point x="219" y="1047" type="curve" smooth="yes"/>
      <point x="219" y="852"/>
      <point x="358" y="704"/>
    </contour>
  </outline>
</glyph>
<glyph name="equal" format="1">
  <advance width="1070"/>
  <unicode hex="003D"/>
  <outline>
    <contour>
      <point x="121" y="392" type="line"/>
      <point x="121" y="502" type="line"/>
      <point x="949" y="502" type="line"/>
      <point x="949" y="392" type="line"/>
    </contour>
    <contour>
      <point x="120" y="831" type="line"/>
      <point x="120" y="943" type="line"/>
      <point x="950" y="943" type="line"/>
      <point x="950" y="831" type="line"/>
    </contour>
  </outline>
</glyph>
<glyph name="J" format="1">
  <advance width="512"/>
  <unicode hex="004a"/>
  <outline>
    <contour>
      <point x="1" y="-138" type="line" smooth="no"/>
      <point x="-8" y="-44" type="line" smooth="no"/>
      <point x="40" y="-44" type="line" smooth="yes"/>
      <point x="178.912" y="-44"/>
      <point x="234" y="0"/>
      <point x="234" y="216" type="curve" smooth="yes"/>
      <point x="234" y="1488" type="line" smooth="no"/>
      <point x="367" y="1488" type="line" smooth="no"/>
      <point x="367" y="303" type="line" smooth="yes"/>
      <point x="367" y="7"/>
      <point x="366" y="-138"/>
      <point x="13" y="-138" type="curve" smooth="yes"/>
    </contour>
  </outline>
</glyph>
<glyph name="V" format="1">
  <advance width="1206"/>
  <unicode hex="0056"/>
  <outline>
    <contour>
      <point x="531" y="0" type="line" smooth="no"/>
      <point x="-5" y="1488" type="line" smooth="no"/>
      <point x="137" y="1488" type="line" smooth="no"/>
      <point x="475" y="529" type="line" smooth="no"/>
      <point x="599" y="137" type="line" smooth="no"/>
      <point x="726" y="535" type="line" smooth="yes"/>
      <point x="1067" y="1488" type="line" smooth="no"/>
      <point x="1211" y="1488" type="line" smooth="no"/>
      <point x="668" y="0" type="line" smooth="no"/>
    </contour>
  </outline>
</glyph>
<glyph name="f" format="1">
  <advance width="638"/>
  <unicode hex="0066"/>
  <outline>
    <contour>
      <point x="216" y="0" type="line"/>
      <point x="216" y="1005" type="line"/>
      <point x="36" y="1005" type="line"/>
      <point x="44" y="1082" type="line"/>
      <point x="216" y="1096" type="line"/>
      <point x="216" y="1137" type="line" smooth="yes"/>
      <point x="216" y="1428"/>
      <point x="318" y="1549"/>
      <point x="523" y="1549" type="curve" smooth="yes"/>
      <point x="574" y="1549"/>
      <point x="616" y="1543"/>
      <point x="676" y="1534" type="curve"/>
      <point x="667" y="1452" type="line"/>
      <point x="623" y="1457"/>
      <point x="581" y="1463"/>
      <point x="537" y="1463" type="curve" smooth="yes"/>
      <point x="382" y="1463"/>
      <point x="340" y="1372"/>
      <point x="340" y="1131" type="curve" smooth="yes"/>
      <point x="340" y="1096" type="line"/>
      <point x="607" y="1096" type="line"/>
      <point x="607" y="1005" type="line"/>
      <point x="340" y="1005" type="line"/>
      <point x="340" y="0" type="line"/>
    </contour>
  </outline>
</glyph>
<glyph name="i" format="1">
  <advance width="445"/>
  <unicode hex="0069"/>
  <outline>
    <contour>
      <point x="169" y="0" type="line" smooth="no"/>
      <point x="169" y="1096" type="line" smooth="no"/>
      <point x="294" y="1096" type="line" smooth="no"/>
      <point x="294" y="0" type="line" smooth="no"/>
    </contour>
    <contour>
      <point x="169" y="1320" type="line" smooth="no"/>
      <point x="169" y="1488" type="line" smooth="no"/>
      <point x="293" y="1488" type="line" smooth="no"/>
      <point x="293" y="1320" type="line" smooth="no"/>
    </contour>
  </outline>
</glyph>
<glyph name="k" format="1">
  <advance width="986"/>
  <unicode hex="006b"/>
  <outline>
    <contour>
      <point x="149" y="0" type="line" smooth="no"/>
      <point x="149" y="1522" type="line" smooth="no"/>
      <point x="272" y="1532" type="line" smooth="no"/>
      <point x="272" y="663" type="line" smooth="no"/>
      <point x="272" y="568" type="line" smooth="no"/>
      <point x="288" y="588"/>
      <point x="380" y="686"/>
      <point x="398" y="707" type="curve" smooth="no"/>
      <point x="526" y="841"/>
      <point x="777" y="1096"/>
      <point x="777" y="1096" type="curve" smooth="no"/>
      <point x="944" y="1096" type="line" smooth="no"/>
      <point x="485" y="638" type="line" smooth="no"/>
      <point x="976" y="0" type="line" smooth="no"/>
      <point x="819" y="0" type="line" smooth="no"/>
      <point x="400" y="568" type="line" smooth="no"/>
      <point x="272" y="450" type="line" smooth="no"/>
      <point x="272" y="0" type="line" smooth="no"/>
    </contour>
  </outline>
</glyph>
<glyph name="u" format="1">
  <advance width="1106"/>
  <unicode hex="0075"/>
  <outline>
    <contour>
      <point x="555" y="-24" type="curve" smooth="yes"/>
      <point x="339" y="-24"/>
      <point x="123" y="64"/>
      <point x="123" y="350" type="curve" smooth="yes"/>
      <point x="123" y="1096" type="line"/>
      <point x="247" y="1096" type="line"/>
      <point x="247" y="347" type="line" smooth="yes"/>
      <point x="247" y="130"/>
      <point x="389" y="75"/>
      <point x="555" y="75" type="curve" smooth="yes"/>
      <point x="719" y="75"/>
      <point x="859" y="133"/>
      <point x="859" y="347" type="curve" smooth="yes"/>
      <point x="859" y="1096" type="line"/>
      <point x="983" y="1096" type="line"/>
      <point x="983" y="350" type="line" smooth="yes"/>
      <point x="983" y="60"/>
      <point x="771" y="-24"/>
    </contour>
  </outline>
</glyph>
<glyph name="exclamdown" format="1">
  <advance width="650"/>
  <unicode hex="00A1"/>
  <outline>
    <contour>
      <point x="235" y="-402" type="line"/>
      <point x="235" y="-312" type="line"/>
      <point x="285" y="694" type="line"/>
      <point x="351" y="694" type="line"/>
      <point x="412" y="-312" type="line"/>
      <point x="412" y="-402" type="line"/>
    </contour>
    <contour>
      <point x="325" y="892" type="curve" smooth="yes"/>
      <point x="235" y="892"/>
      <point x="202" y="954"/>
      <point x="202" y="1009" type="curve" smooth="yes"/>
      <point x="202" y="1064"/>
      <point x="235" y="1127"/>
      <point x="325" y="1127" type="curve" smooth="yes"/>
      <point x="413" y="1127"/>
      <point x="449" y="1064"/>
      <point x="449" y="1009" type="curve" smooth="yes"/>
      <point x="449" y="954"/>
      <point x="413" y="892"/>
    </contour>
  </outline>
</glyph>
<glyph name="cent" format="1">
  <advance width="985"/>
  <unicode hex="00A2"/>
  <outline>
    <contour>
      <point x="567" y="-162" type="line"/>
      <point x="567" y="-28" type="line"/>
      <point x="252" y="1"/>
      <point x="97" y="289"/>
      <point x="97" y="537" type="curve"/>
      <point x="99" y="787"/>
      <point x="257" y="1093"/>
      <point x="567" y="1126" type="curve"/>
      <point x="567" y="1281" type="line"/>
      <point x="644" y="1281" type="line"/>
      <point x="644" y="1127" type="line"/>
      <point x="758" y="1122"/>
      <point x="859" y="1085"/>
      <point x="911" y="1033" type="curve"/>
      <point x="870" y="950" type="line"/>
      <point x="787" y="1005"/>
      <point x="713" y="1018"/>
      <point x="644" y="1023" type="curve"/>
      <point x="644" y="75" type="line"/>
      <point x="733" y="84"/>
      <point x="812" y="118"/>
      <point x="870" y="156" type="curve"/>
      <point x="908" y="73" type="line"/>
      <point x="848" y="13"/>
      <point x="740" y="-21"/>
      <point x="644" y="-28" type="curve"/>
      <point x="644" y="-162" type="line"/>
    </contour>
    <contour>
      <point x="567" y="77" type="curve"/>
      <point x="567" y="1022" type="line"/>
      <point x="373" y="993"/>
      <point x="233" y="775"/>
      <point x="233" y="535" type="curve" smooth="yes"/>
      <point x="233" y="308"/>
      <point x="364" y="108"/>
    </contour>
  </outline>
</glyph>
<glyph name="yen" format="1">
  <advance width="1166"/>
  <unicode hex="00A5"/>
  <outline>
    <contour>
      <point x="501" y="0" type="line"/>
      <point x="501" y="338" type="line"/>
      <point x="96" y="338" type="line"/>
      <point x="96" y="448" type="line"/>
      <point x="501" y="448" type="line"/>
      <point x="501" y="629" type="line"/>
      <point x="95" y="629" type="line"/>
      <point x="95" y="741" type="line"/>
      <point x="430" y="741" type="line"/>
      <point x="5" y="1488" type="line"/>
      <point x="144" y="1488" type="line"/>
      <point x="575" y="705" type="line"/>
      <point x="1020" y="1488" type="line"/>
      <point x="1161" y="1488" type="line"/>
      <point x="719" y="741" type="line"/>
      <point x="1037" y="741" type="line"/>
      <point x="1037" y="629" type="line"/>
      <point x="632" y="629" type="line"/>
      <point x="632" y="448" type="line"/>
      <point x="1036" y="448" type="line"/>
      <point x="1036" y="338" type="line"/>
      <point x="632" y="338" type="line"/>
      <point x="632" y="0" type="line"/>
    </contour>
  </outline>
</glyph>
<glyph name="brokenbar" format="1">
  <advance width="775"/>
  <unicode hex="00A6"/>
  <outline>
    <contour>
      <point x="329" y="-200" type="line"/>
      <point x="329" y="502" type="line"/>
      <point x="449" y="502" type="line"/>
      <point x="449" y="-200" type="line"/>
    </contour>
    <contour>
      <point x="329" y="850" type="line"/>
      <point x="329" y="1549" type="line"/>
      <point x="449" y="1549" type="line"/>
      <point x="449" y="850" type="line"/>
    </contour>
  </outline>
</glyph>
<glyph name="section" format="1">
  <advance width="853"/>
  <unicode hex="00A7"/>
  <outline>
    <contour>
      <point x="267" y="1019" type="curve"/>
      <point x="171" y="1080"/>
      <point x="106" y="1138"/>
      <point x="106" y="1262" type="curve" smooth="yes"/>
      <point x="106" y="1407"/>
      <point x="224" y="1514"/>
      <point x="460" y="1514" type="curve" smooth="yes"/>
      <point x="546" y="1514"/>
      <point x="646" y="1497"/>
      <point x="723" y="1467" type="curve"/>
      <point x="704" y="1377" type="line"/>
      <point x="635" y="1404"/>
      <point x="543" y="1422"/>
      <point x="459" y="1422" type="curve" smooth="yes"/>
      <point x="333" y="1422"/>
      <point x="222" y="1381"/>
      <point x="222" y="1266" type="curve" smooth="yes"/>
      <point x="222" y="1171"/>
      <point x="300" y="1115"/>
      <point x="484" y="1042" type="curve"/>
      <point x="681" y="962"/>
      <point x="767" y="890"/>
      <point x="767" y="759" type="curve" smooth="yes"/>
      <point x="767" y="634"/>
      <point x="689" y="551"/>
      <point x="594" y="491" type="curve"/>
      <point x="690" y="436"/>
      <point x="756" y="379"/>
      <point x="756" y="263" type="curve" smooth="yes"/>
      <point x="756" y="86"/>
      <point x="606" y="-17"/>
      <point x="365" y="-17" type="curve" smooth="yes"/>
      <point x="255" y="-17"/>
      <point x="162" y="0"/>
      <point x="91" y="33" type="curve"/>
      <point x="106" y="125" type="line"/>
      <point x="176" y="93"/>
      <point x="272" y="73"/>
      <point x="363" y="73" type="curve" smooth="yes"/>
      <point x="507" y="73"/>
      <point x="639" y="123"/>
      <point x="639" y="251" type="curve" smooth="yes"/>
      <point x="639" y="358"/>
      <point x="559" y="401"/>
      <point x="393" y="469" type="curve"/>
      <point x="179" y="551"/>
      <point x="88" y="627"/>
      <point x="88" y="776" type="curve" smooth="yes"/>
      <point x="88" y="901"/>
      <point x="166" y="966"/>
    </contour>
    <contour>
      <point x="356" y="979" type="curve"/>
      <point x="274" y="944"/>
      <point x="197" y="879"/>
      <point x="197" y="782" type="curve" smooth="yes"/>
      <point x="197" y="676"/>
      <point x="278" y="623"/>
      <point x="437" y="560" type="curve"/>
      <point x="501" y="533" type="line"/>
      <point x="580" y="581"/>
      <point x="657" y="646"/>
      <point x="657" y="739" type="curve" smooth="yes"/>
      <point x="657" y="872"/>
      <point x="516" y="921"/>
    </contour>
  </outline>
</glyph>
<glyph name="copyright" format="1">
  <advance width="1886"/>
  <unicode hex="00A9"/>
  <outline>
    <contour>
      <point x="930" y="174" type="curve" smooth="yes"/>
      <point x="650" y="174"/>
      <point x="450" y="402"/>
      <point x="450" y="707" type="curve" smooth="yes"/>
      <point x="450" y="1016"/>
      <point x="645" y="1237"/>
      <point x="946" y="1237" type="curve" smooth="yes"/>
      <point x="1066" y="1237"/>
      <point x="1172" y="1200"/>
      <point x="1254" y="1142" type="curve"/>
      <point x="1230" y="1032" type="line"/>
      <point x="1171" y="1086"/>
      <point x="1047" y="1130"/>
      <point x="940" y="1130" type="curve" smooth="yes"/>
      <point x="694" y="1130"/>
      <point x="582" y="929"/>
      <point x="582" y="714" type="curve" smooth="yes"/>
      <point x="582" y="469"/>
      <point x="701" y="280"/>
      <point x="960" y="280" type="curve" smooth="yes"/>
      <point x="1058" y="280"/>
      <point x="1175" y="324"/>
      <point x="1222" y="359" type="curve"/>
      <point x="1258" y="257" type="line"/>
      <point x="1192" y="217"/>
      <point x="1055" y="174"/>
    </contour>
    <contour>
      <point x="927" y="-24" type="curve" smooth="yes"/>
      <point x="1273" y="-23"/>
      <point x="1615" y="217"/>
      <point x="1614" y="694" type="curve"/>
      <point x="1614" y="1176"/>
      <point x="1262" y="1424"/>
      <point x="915" y="1424" type="curve" smooth="yes"/>
      <point x="576" y="1424"/>
      <point x="241" y="1188"/>
      <point x="241" y="701" type="curve" smooth="yes"/>
      <point x="241" y="216"/>
      <point x="584" y="-24"/>
    </contour>
    <contour>
      <point x="924" y="-116" type="curve" smooth="yes"/>
      <point x="526" y="-116"/>
      <point x="129" y="154"/>
      <point x="129" y="698" type="curve" smooth="yes"/>
      <point x="129" y="1246"/>
      <point x="522" y="1514"/>
      <point x="918" y="1514" type="curve" smooth="yes"/>
      <point x="1320" y="1514"/>
      <point x="1726" y="1238"/>
      <point x="1726" y="698" type="curve" smooth="yes"/>
      <point x="1726" y="157"/>
      <point x="1325" y="-116"/>
    </contour>
  </outline>
</glyph>
<glyph name="macron" format="1">
  <advance width="1131"/>
  <unicode hex="00AF"/>
  <outline>
    <contour>
      <point x="256" y="1270" type="line"/>
      <point x="256" y="1376" type="line"/>
      <point x="874" y="1376" type="line"/>
      <point x="874" y="1270" type="line"/>
    </contour>
  </outline>
</glyph>
<glyph name="uni00B3" format="1">
  <advance width="589"/>
  <unicode hex="00B3"/>
  <outline>
    <contour>
      <point x="284" y="628" type="curve" smooth="yes"/>
      <point x="202" y="628"/>
      <point x="108" y="652"/>
      <point x="54" y="706" type="curve"/>
      <point x="92" y="774" type="line"/>
      <point x="175" y="711"/>
      <point x="228" y="706"/>
      <point x="280" y="706" type="curve" smooth="yes"/>
      <point x="362" y="706"/>
      <point x="443" y="771"/>
      <point x="443" y="866" type="curve" smooth="yes"/>
      <point x="443" y="988"/>
      <point x="368" y="1038"/>
      <point x="250" y="1038" type="curve" smooth="yes"/>
      <point x="161" y="1038" type="line"/>
      <point x="161" y="1112" type="line"/>
      <point x="241" y="1112" type="line" smooth="yes"/>
      <point x="337" y="1112"/>
      <point x="418" y="1152"/>
      <point x="412" y="1274" type="curve" smooth="yes"/>
      <point x="408" y="1352"/>
      <point x="350" y="1411"/>
      <point x="261" y="1411" type="curve" smooth="yes"/>
      <point x="201" y="1411"/>
      <point x="129" y="1387"/>
      <point x="99" y="1361" type="curve"/>
      <point x="58" y="1432" type="line"/>
      <point x="99" y="1462"/>
      <point x="182" y="1487"/>
      <point x="260" y="1487" type="curve" smooth="yes"/>
      <point x="386" y="1487"/>
      <point x="510" y="1430"/>
      <point x="510" y="1276" type="curve" smooth="yes"/>
      <point x="510" y="1150"/>
      <point x="440" y="1114"/>
      <point x="377" y="1079" type="curve"/>
      <point x="480" y="1050"/>
      <point x="530" y="984"/>
      <point x="530" y="873" type="curve" smooth="yes"/>
      <point x="530" y="712"/>
      <point x="421" y="628"/>
    </contour>
  </outline>
</glyph>
<glyph name="paragraph" format="1">
  <advance width="1007"/>
  <unicode hex="00b6"/>
  <outline>
    <contour>
      <point x="495.184" y="0" type="line" smooth="no"/>
      <point x="495.184" y="0"/>
      <point x="493.135" y="863.158"/>
      <point x="492.113" y="863.158" type="curve" smooth="yes"/>
      <point x="224.583" y="863.158"/>
      <point x="80.8164" y="1034.17"/>
      <point x="80.8164" y="1200.9" type="curve" smooth="yes"/>
      <point x="80.8164" y="1359.47"/>
      <point x="210.868" y="1514.17"/>
      <point x="488.184" y="1514.17" type="curve" smooth="yes"/>
      <point x="926.184" y="1514.17" type="line" smooth="no"/>
      <point x="926.184" y="1417.17" type="line" smooth="no"/>
      <point x="854.184" y="1417.17" type="line" smooth="no"/>
      <point x="854.184" y="0" type="line" smooth="no"/>
      <point x="762.184" y="0" type="line" smooth="no"/>
      <point x="762.184" y="1417.17" type="line" smooth="no"/>
      <point x="589.184" y="1417.17" type="line" smooth="no"/>
      <point x="589.184" y="0" type="line" smooth="no"/>
    </contour>
  </outline>
</glyph>
<glyph name="uni00B9" format="1">
  <advance width="656"/>
  <unicode hex="00b9"/>
  <outline>
    <contour>
      <point x="181" y="681" type="line" smooth="no"/>
      <point x="181" y="747" type="line" smooth="no"/>
      <point x="285" y="747" type="line" smooth="no"/>
      <point x="285" y="1416" type="line" smooth="no"/>
      <point x="250" y="1390"/>
      <point x="230" y="1379"/>
      <point x="171" y="1344" type="curve" smooth="no"/>
      <point x="171" y="1425" type="line" smooth="no"/>
      <point x="190" y="1436"/>
      <point x="263" y="1477"/>
      <point x="293" y="1514" type="curve" smooth="no"/>
      <point x="378" y="1514" type="line" smooth="no"/>
      <point x="378" y="747" type="line" smooth="no"/>
      <point x="485" y="747" type="line" smooth="no"/>
      <point x="485" y="681" type="line" smooth="no"/>
    </contour>
  </outline>
</glyph>
<glyph name="ordmasculine" format="1">
  <advance width="807"/>
  <unicode hex="00BA"/>
  <outline>
    <contour>
      <point x="197" y="1117" type="curve" smooth="yes"/>
      <point x="197" y="966"/>
      <point x="265" y="839"/>
      <point x="406" y="839" type="curve" smooth="yes"/>
      <point x="541" y="839"/>
      <point x="610" y="970"/>
      <point x="610" y="1113" type="curve" smooth="yes"/>
      <point x="610" y="1263"/>
      <point x="539" y="1395"/>
      <point x="402" y="1395" type="curve" smooth="yes"/>
      <point x="269" y="1395"/>
      <point x="197" y="1263"/>
    </contour>
    <contour>
      <point x="404" y="1488" type="curve" smooth="yes"/>
      <point x="599" y="1488"/>
      <point x="710" y="1325"/>
      <point x="710" y="1115" type="curve" smooth="yes"/>
      <point x="710" y="908"/>
      <point x="599" y="748"/>
      <point x="406" y="748" type="curve" smooth="yes"/>
      <point x="202" y="748"/>
      <point x="96" y="908"/>
      <point x="96" y="1120" type="curve" smooth="yes"/>
      <point x="96" y="1328"/>
      <point x="209" y="1488"/>
    </contour>
  </outline>
</glyph>
<glyph name="Thorn" format="1">
  <advance width="1275"/>
  <unicode hex="00DE"/>
  <outline>
    <contour>
      <point x="182" y="0" type="line"/>
      <point x="182" y="1488" type="line"/>
      <point x="310" y="1488" type="line"/>
      <point x="310" y="1191" type="line"/>
      <point x="679" y="1191" type="line" smooth="yes"/>
      <point x="1042" y="1191"/>
      <point x="1216" y="1086"/>
      <point x="1216" y="765" type="curve" smooth="yes"/>
      <point x="1216" y="538"/>
      <point x="1112" y="356"/>
      <point x="738" y="356" type="curve" smooth="yes"/>
      <point x="310" y="356" type="line"/>
      <point x="310" y="0" type="line"/>
    </contour>
    <contour>
      <point x="310" y="458" type="line"/>
      <point x="744" y="458" type="line" smooth="yes"/>
      <point x="1014" y="458"/>
      <point x="1085" y="602"/>
      <point x="1085" y="775" type="curve" smooth="yes"/>
      <point x="1085" y="985"/>
      <point x="995" y="1085"/>
      <point x="695" y="1085" type="curve" smooth="yes"/>
      <point x="310" y="1085" type="line"/>
    </contour>
  </outline>
</glyph>
<glyph name="eth" format="1">
  <advance width="1194"/>
  <unicode hex="00F0"/>
  <outline>
    <contour>
      <point x="593" y="-28" type="curve" smooth="yes"/>
      <point x="266" y="-28"/>
      <point x="101" y="228"/>
      <point x="101" y="487" type="curve" smooth="yes"/>
      <point x="101" y="775"/>
      <point x="296" y="970"/>
      <point x="586" y="970" type="curve" smooth="yes"/>
      <point x="759" y="970"/>
      <point x="848" y="888"/>
      <point x="929" y="816" type="curve"/>
      <point x="863" y="936"/>
      <point x="682" y="1134"/>
      <point x="554" y="1252" type="curve"/>
      <point x="272" y="1133" type="line"/>
      <point x="246" y="1229" type="line"/>
      <point x="483" y="1324" type="line"/>
      <point x="232" y="1546" type="line"/>
      <point x="390" y="1546" type="line"/>
      <point x="579" y="1374" type="line"/>
      <point x="868" y="1500" type="line"/>
      <point x="897" y="1408" type="line"/>
      <point x="649" y="1299" type="line"/>
      <point x="871" y="1065"/>
      <point x="1096" y="885"/>
      <point x="1096" y="499" type="curve" smooth="yes"/>
      <point x="1096" y="492" type="line" smooth="yes"/>
      <point x="1096" y="215"/>
      <point x="936" y="-28"/>
    </contour>
    <contour>
      <point x="598" y="72" type="curve" smooth="yes"/>
      <point x="841" y="72"/>
      <point x="973" y="255"/>
      <point x="973" y="472" type="curve" smooth="yes"/>
      <point x="973" y="656"/>
      <point x="841" y="872"/>
      <point x="592" y="872" type="curve" smooth="yes"/>
      <point x="364" y="872"/>
      <point x="232" y="687"/>
      <point x="232" y="490" type="curve" smooth="yes"/>
      <point x="232" y="288"/>
      <point x="348" y="72"/>
    </contour>
  </outline>
</glyph>
<glyph name="thorn" format="1">
  <advance width="1175"/>
  <unicode hex="00FE"/>
  <outline>
    <contour>
      <point x="147" y="-488" type="line"/>
      <point x="147" y="1514" type="line"/>
      <point x="271" y="1514" type="line"/>
      <point x="271" y="907" type="line"/>
      <point x="315" y="992"/>
      <point x="431" y="1115"/>
      <point x="611" y="1116" type="curve"/>
      <point x="911" y="1116"/>
      <point x="1078" y="896"/>
      <point x="1078" y="560" type="curve" smooth="yes"/>
      <point x="1078" y="238"/>
      <point x="928" y="-23"/>
      <point x="625" y="-23" type="curve" smooth="yes"/>
      <point x="499" y="-23"/>
      <point x="345" y="37"/>
      <point x="271" y="183" type="curve"/>
      <point x="271" y="-479" type="line"/>
    </contour>
    <contour>
      <point x="621" y="78" type="curve" smooth="yes"/>
      <point x="880" y="78"/>
      <point x="948" y="374"/>
      <point x="948" y="564" type="curve" smooth="yes"/>
      <point x="948" y="743"/>
      <point x="877" y="1011"/>
      <point x="599" y="1011" type="curve" smooth="yes"/>
      <point x="359" y="1011"/>
      <point x="270" y="791"/>
      <point x="270" y="564" type="curve" smooth="yes"/>
      <point x="270" y="319"/>
      <point x="352" y="78"/>
    </contour>
  </outline>
</glyph>
<glyph name="kgreenlandic" format="1">
  <advance width="986"/>
  <unicode hex="0138"/>
  <outline>
    <contour>
      <point x="149" y="0" type="line" smooth="no"/>
      <point x="149" y="1096" type="line" smooth="no"/>
      <point x="272" y="1096" type="line" smooth="no"/>
      <point x="272" y="541" type="line" smooth="no"/>
      <point x="288" y="561"/>
      <point x="380" y="659"/>
      <point x="398" y="680" type="curve" smooth="yes"/>
      <point x="526" y="823.301"/>
      <point x="777" y="1096"/>
      <point x="777" y="1096" type="curve" smooth="no"/>
      <point x="944" y="1096" type="line" smooth="no"/>
      <point x="485" y="611" type="line" smooth="no"/>
      <point x="976" y="0" type="line" smooth="no"/>
      <point x="819" y="0" type="line" smooth="no"/>
      <point x="400" y="541" type="line" smooth="no"/>
      <point x="272" y="423" type="line" smooth="no"/>
      <point x="272" y="0" type="line" smooth="no"/>
    </contour>
  </outline>
</glyph>
<glyph name="Lcaron" format="1">
  <advance width="998"/>
  <unicode hex="013d"/>
  <outline>
    <component base="L"/>
    <contour>
      <point x="1133" y="1064" type="line" smooth="no"/>
      <point x="1271" y="1514" type="line" smooth="no"/>
      <point x="1407" y="1514" type="line" smooth="no"/>
      <point x="1237" y="1064" type="line" smooth="no"/>
    </contour>
  </outline>
</glyph>
<glyph name="lcaron" format="1">
  <advance width="581"/>
  <unicode hex="013e"/>
  <outline>
    <component base="l"/>
    <contour>
      <point x="734" y="1082" type="line" smooth="no"/>
      <point x="872" y="1532" type="line" smooth="no"/>
      <point x="1008" y="1532" type="line" smooth="no"/>
      <point x="838" y="1082" type="line" smooth="no"/>
    </contour>
  </outline>
</glyph>
<glyph name="Lslash" format="1">
  <advance width="998"/>
  <unicode hex="0141"/>
  <outline>
    <contour>
      <point x="9" y="545" type="line"/>
      <point x="9" y="669" type="line"/>
      <point x="182" y="757" type="line"/>
      <point x="182" y="1488" type="line"/>
      <point x="311" y="1488" type="line"/>
      <point x="311" y="823" type="line"/>
      <point x="653" y="998" type="line"/>
      <point x="653" y="867" type="line"/>
      <point x="311" y="696" type="line"/>
      <point x="311" y="113" type="line"/>
      <point x="980" y="113" type="line"/>
      <point x="974" y="0" type="line"/>
      <point x="182" y="0" type="line"/>
      <point x="182" y="632" type="line"/>
    </contour>
  </outline>
</glyph>
<glyph name="OE" format="1">
  <advance width="1949"/>
  <unicode hex="0152"/>
  <outline>
    <contour>
      <point x="817" y="-23" type="curve" smooth="yes"/>
      <point x="335" y="-23"/>
      <point x="118" y="297"/>
      <point x="118" y="785" type="curve" smooth="yes"/>
      <point x="118" y="1230"/>
      <point x="406" y="1514"/>
      <point x="799" y="1514" type="curve" smooth="yes"/>
      <point x="948" y="1514"/>
      <point x="1074" y="1480"/>
      <point x="1139" y="1435" type="curve"/>
      <point x="1139" y="1488" type="line"/>
      <point x="1813" y="1488" type="line"/>
      <point x="1797" y="1382" type="line"/>
      <point x="1267" y="1382" type="line"/>
      <point x="1267" y="822" type="line"/>
      <point x="1758" y="822" type="line"/>
      <point x="1758" y="713" type="line"/>
      <point x="1267" y="713" type="line"/>
      <point x="1267" y="107" type="line"/>
      <point x="1835" y="107" type="line"/>
      <point x="1821" y="0" type="line"/>
      <point x="1139" y="0" type="line"/>
      <point x="1139" y="60" type="line"/>
      <point x="1115" y="31"/>
      <point x="928" y="-23"/>
    </contour>
    <contour>
      <point x="819" y="82" type="curve" smooth="yes"/>
      <point x="1005" y="82"/>
      <point x="1102" y="151"/>
      <point x="1139" y="175" type="curve"/>
      <point x="1139" y="1318" type="line"/>
      <point x="1057" y="1372"/>
      <point x="940" y="1407"/>
      <point x="807" y="1407" type="curve" smooth="yes"/>
      <point x="475" y="1407"/>
      <point x="258" y="1185"/>
      <point x="258" y="771" type="curve" smooth="yes"/>
      <point x="258" y="404"/>
      <point x="382" y="82"/>
    </contour>
  </outline>
</glyph>
<glyph name="tcaron" format="1">
  <advance width="676"/>
  <unicode hex="0165"/>
  <outline>
    <component base="t"/>
    <contour>
      <point x="796" y="901" type="line" smooth="no"/>
      <point x="934" y="1351" type="line" smooth="no"/>
      <point x="1070" y="1351" type="line" smooth="no"/>
      <point x="900" y="901" type="line" smooth="no"/>
    </contour>
  </outline>
</glyph>
<glyph name="breve" format="1">
  <advance width="774"/>
  <unicode hex="02D8"/>
  <outline>
    <contour>
      <point x="389" y="1356" type="curve" smooth="yes"/>
      <point x="267" y="1356"/>
      <point x="159" y="1442"/>
      <point x="159" y="1608" type="curve"/>
      <point x="251" y="1608" type="line"/>
      <point x="251" y="1491"/>
      <point x="302" y="1434"/>
      <point x="389" y="1434" type="curve" smooth="yes"/>
      <point x="475" y="1434"/>
      <point x="530" y="1491"/>
      <point x="530" y="1608" type="curve"/>
      <point x="624" y="1608" type="line"/>
      <point x="624" y="1443"/>
      <point x="514" y="1356"/>
    </contour>
  </outline>
</glyph>
<glyph name="endash" format="1">
  <advance width="1024"/>
  <unicode hex="2013"/>
  <outline>
    <contour>
      <point x="93" y="531" type="line"/>
      <point x="93" y="641" type="line"/>
      <point x="931" y="641" type="line"/>
      <point x="931" y="531" type="line"/>
    </contour>
  </outline>
</glyph>
<glyph name="dagger" format="1">
  <advance width="861"/>
  <unicode hex="2020"/>
  <outline>
    <contour>
      <point x="378" y="1" type="line"/>
      <point x="378" y="968" type="line"/>
      <point x="89" y="968" type="line"/>
      <point x="89" y="1047" type="line"/>
      <point x="378" y="1047" type="line"/>
      <point x="378" y="1488" type="line"/>
      <point x="477" y="1488" type="line"/>
      <point x="477" y="1047" type="line"/>
      <point x="772" y="1047" type="line"/>
      <point x="772" y="968" type="line"/>
      <point x="482" y="968" type="line"/>
      <point x="482" y="1" type="line"/>
    </contour>
  </outline>
</glyph>
<glyph name="daggerdbl" format="1">
  <advance width="929"/>
  <unicode hex="2021"/>
  <outline>
    <contour>
      <point x="418" y="78" type="line" smooth="no"/>
      <point x="418" y="534" type="line" smooth="no"/>
      <point x="98" y="534" type="line" smooth="no"/>
      <point x="98" y="634" type="line" smooth="no"/>
      <point x="418" y="634" type="line" smooth="no"/>
      <point x="418" y="1125" type="line" smooth="no"/>
      <point x="104" y="1125" type="line" smooth="no"/>
      <point x="104" y="1229" type="line" smooth="no"/>
      <point x="418" y="1229" type="line" smooth="no"/>
      <point x="418" y="1615" type="line" smooth="no"/>
      <point x="516" y="1615" type="line" smooth="no"/>
      <point x="516" y="1229" type="line" smooth="no"/>
      <point x="837" y="1229" type="line" smooth="no"/>
      <point x="837" y="1125" type="line" smooth="no"/>
      <point x="516" y="1125" type="line" smooth="no"/>
      <point x="516" y="634" type="line" smooth="no"/>
      <point x="828" y="634" type="line" smooth="no"/>
      <point x="828" y="534" type="line" smooth="no"/>
      <point x="516" y="534" type="line" smooth="no"/>
      <point x="516" y="78" type="line" smooth="no"/>
    </contour>
  </outline>
</glyph>
<glyph name="bullet" format="1">
  <advance width="808"/>
  <unicode hex="2022"/>
  <outline>
    <contour>
      <point x="404" y="535" type="curve" smooth="yes"/>
      <point x="229" y="535"/>
      <point x="145" y="658"/>
      <point x="145" y="782" type="curve" smooth="yes"/>
      <point x="145" y="910"/>
      <point x="234" y="1039"/>
      <point x="404" y="1039" type="curve" smooth="yes"/>
      <point x="577" y="1039"/>
      <point x="663" y="913"/>
      <point x="663" y="787" type="curve" smooth="yes"/>
      <point x="663" y="661"/>
      <point x="577" y="535"/>
    </contour>
  </outline>
</glyph>
<glyph name="perthousand" format="1">
  <advance width="2562"/>
  <unicode hex="2030"/>
  <outline>
    <contour>
      <point x="1342" y="0" type="curve" smooth="yes"/>
      <point x="1568" y="0"/>
      <point x="1683" y="168"/>
      <point x="1683" y="384" type="curve" smooth="yes"/>
      <point x="1683" y="605"/>
      <point x="1571" y="769"/>
      <point x="1342" y="769" type="curve" smooth="yes"/>
      <point x="1110" y="769"/>
      <point x="999" y="605"/>
      <point x="999" y="384" type="curve" smooth="yes"/>
      <point x="999" y="168"/>
      <point x="1113" y="0"/>
    </contour>
    <contour>
      <point x="1342" y="685" type="curve" smooth="yes"/>
      <point x="1532" y="685"/>
      <point x="1576" y="530"/>
      <point x="1576" y="384" type="curve" smooth="yes"/>
      <point x="1576" y="243"/>
      <point x="1524" y="83"/>
      <point x="1342" y="83" type="curve" smooth="yes"/>
      <point x="1157" y="83"/>
      <point x="1106" y="243"/>
      <point x="1106" y="384" type="curve" smooth="yes"/>
      <point x="1106" y="530"/>
      <point x="1149" y="685"/>
    </contour>
    <contour>
      <point x="393" y="719" type="curve" smooth="yes"/>
      <point x="619" y="719"/>
      <point x="734" y="887"/>
      <point x="734" y="1103" type="curve" smooth="yes"/>
      <point x="734" y="1324"/>
      <point x="622" y="1488"/>
      <point x="393" y="1488" type="curve" smooth="yes"/>
      <point x="161" y="1488"/>
      <point x="50" y="1324"/>
      <point x="50" y="1103" type="curve" smooth="yes"/>
      <point x="50" y="887"/>
      <point x="164" y="719"/>
    </contour>
    <contour>
      <point x="393" y="1404" type="curve" smooth="yes"/>
      <point x="583" y="1404"/>
      <point x="627" y="1249"/>
      <point x="627" y="1103" type="curve" smooth="yes"/>
      <point x="627" y="962"/>
      <point x="575" y="802"/>
      <point x="393" y="802" type="curve" smooth="yes"/>
      <point x="208" y="802"/>
      <point x="157" y="962"/>
      <point x="157" y="1103" type="curve" smooth="yes"/>
      <point x="157" y="1249"/>
      <point x="200" y="1404"/>
    </contour>
    <contour>
      <point x="2148" y="0" type="curve" smooth="yes"/>
      <point x="2374" y="0"/>
      <point x="2489" y="168"/>
      <point x="2489" y="384" type="curve" smooth="yes"/>
      <point x="2489" y="605"/>
      <point x="2377" y="769"/>
      <point x="2148" y="769" type="curve" smooth="yes"/>
      <point x="1916" y="769"/>
      <point x="1805" y="605"/>
      <point x="1805" y="384" type="curve" smooth="yes"/>
      <point x="1805" y="168"/>
      <point x="1919" y="0"/>
    </contour>
    <contour>
      <point x="2148" y="685" type="curve" smooth="yes"/>
      <point x="2338" y="685"/>
      <point x="2382" y="530"/>
      <point x="2382" y="384" type="curve" smooth="yes"/>
      <point x="2382" y="243"/>
      <point x="2330" y="83"/>
      <point x="2148" y="83" type="curve" smooth="yes"/>
      <point x="1963" y="83"/>
      <point x="1912" y="243"/>
      <point x="1912" y="384" type="curve" smooth="yes"/>
      <point x="1912" y="530"/>
      <point x="1955" y="685"/>
    </contour>
    <contour>
      <point x="392" y="0" type="line"/>
      <point x="1207" y="1488" type="line"/>
      <point x="1334" y="1488" type="line"/>
      <point x="512" y="0" type="line"/>
    </contour>
  </outline>
</glyph>
<glyph name="uniFB00" format="1">
  <advance width="1171"/>
  <unicode hex="FB00"/>
  <outline>
    <contour>
      <point x="749" y="0" type="line"/>
      <point x="749" y="1005" type="line"/>
      <point x="340" y="1005" type="line"/>
      <point x="340" y="0" type="line"/>
      <point x="216" y="0" type="line"/>
      <point x="216" y="1005" type="line"/>
      <point x="36" y="1005" type="line"/>
      <point x="44" y="1082" type="line"/>
      <point x="216" y="1096" type="line"/>
      <point x="216" y="1137" type="line" smooth="yes"/>
      <point x="216" y="1428"/>
      <point x="318" y="1549"/>
      <point x="523" y="1549" type="curve" smooth="yes"/>
      <point x="574" y="1549"/>
      <point x="616" y="1543"/>
      <point x="676" y="1534" type="curve"/>
      <point x="667" y="1452" type="line"/>
      <point x="623" y="1457"/>
      <point x="581" y="1463"/>
      <point x="537" y="1463" type="curve" smooth="yes"/>
      <point x="382" y="1463"/>
      <point x="340" y="1372"/>
      <point x="340" y="1131" type="curve" smooth="yes"/>
      <point x="340" y="1096" type="line"/>
      <point x="749" y="1096" type="line"/>
      <point x="749" y="1137" type="line" smooth="yes"/>
      <point x="749" y="1428"/>
      <point x="851" y="1549"/>
      <point x="1056" y="1549" type="curve" smooth="yes"/>
      <point x="1107" y="1549"/>
      <point x="1149" y="1543"/>
      <point x="1209" y="1534" type="curve"/>
      <point x="1200" y="1452" type="line"/>
      <point x="1156" y="1457"/>
      <point x="1114" y="1463"/>
      <point x="1070" y="1463" type="curve" smooth="yes"/>
      <point x="915" y="1463"/>
      <point x="873" y="1372"/>
      <point x="873" y="1131" type="curve" smooth="yes"/>
      <point x="873" y="1096" type="line"/>
      <point x="1140" y="1096" type="line"/>
      <point x="1140" y="1005" type="line"/>
      <point x="873" y="1005" type="line"/>
      <point x="873" y="0" type="line"/>
    </contour>
  </outline>
</glyph>
<glyph name="uniFB03" format="1">
  <advance width="1721"/>
  <unicode hex="FB03"/>
  <outline>
    <contour>
      <point x="1445" y="1320" type="line"/>
      <point x="1445" y="1488" type="line"/>
      <point x="1569" y="1488" type="line"/>
      <point x="1569" y="1320" type="line"/>
    </contour>
    <contour>
      <point x="216" y="0" type="line"/>
      <point x="216" y="1005" type="line"/>
      <point x="36" y="1005" type="line"/>
      <point x="44" y="1082" type="line"/>
      <point x="216" y="1096" type="line"/>
      <point x="216" y="1137" type="line" smooth="yes"/>
      <point x="216" y="1428"/>
      <point x="318" y="1549"/>
      <point x="523" y="1549" type="curve" smooth="yes"/>
      <point x="574" y="1549"/>
      <point x="616" y="1543"/>
      <point x="676" y="1534" type="curve"/>
      <point x="667" y="1452" type="line"/>
      <point x="623" y="1457"/>
      <point x="581" y="1463"/>
      <point x="537" y="1463" type="curve" smooth="yes"/>
      <point x="382" y="1463"/>
      <point x="340" y="1372"/>
      <point x="340" y="1131" type="curve" smooth="yes"/>
      <point x="340" y="1096" type="line"/>
      <point x="854" y="1096" type="line"/>
      <point x="854" y="1137" type="line" smooth="yes"/>
      <point x="854" y="1428"/>
      <point x="956" y="1549"/>
      <point x="1161" y="1549" type="curve" smooth="yes"/>
      <point x="1212" y="1549"/>
      <point x="1254" y="1543"/>
      <point x="1314" y="1534" type="curve"/>
      <point x="1305" y="1452" type="line"/>
      <point x="1261" y="1457"/>
      <point x="1219" y="1463"/>
      <point x="1175" y="1463" type="curve" smooth="yes"/>
      <point x="1020" y="1463"/>
      <point x="978" y="1372"/>
      <point x="978" y="1131" type="curve" smooth="yes"/>
      <point x="978" y="1096" type="line"/>
      <point x="1570" y="1096" type="line"/>
      <point x="1570" y="0" type="line"/>
      <point x="1445" y="0" type="line"/>
      <point x="1445" y="1005" type="line"/>
      <point x="978" y="1005" type="line"/>
      <point x="978" y="0" type="line"/>
      <point x="854" y="0" type="line"/>
      <point x="854" y="1005" type="line"/>
      <point x="340" y="1005" type="line"/>
      <point x="340" y="0" type="line"/>
    </contour>
  </outline>
</glyph>
<glyph name="uniFB04" format="1">
  <advance width="1838"/>
  <unicode hex="FB04"/>
  <outline>
    <contour>
      <point x="1680" y="-23" type="curve" smooth="yes"/>
      <point x="1498" y="-23"/>
      <point x="1414" y="53"/>
      <point x="1414" y="243" type="curve" smooth="yes"/>
      <point x="1414" y="1439" type="line"/>
      <point x="1368" y="1444"/>
      <point x="1200" y="1463"/>
      <point x="1156" y="1463" type="curve" smooth="yes"/>
      <point x="1001" y="1463"/>
      <point x="959" y="1372"/>
      <point x="959" y="1131" type="curve" smooth="yes"/>
      <point x="959" y="1096" type="line"/>
      <point x="1226" y="1096" type="line"/>
      <point x="1226" y="1005" type="line"/>
      <point x="959" y="1005" type="line"/>
      <point x="959" y="0" type="line"/>
      <point x="835" y="0" type="line"/>
      <point x="835" y="1005" type="line"/>
      <point x="340" y="1005" type="line"/>
      <point x="340" y="0" type="line"/>
      <point x="216" y="0" type="line"/>
      <point x="216" y="1005" type="line"/>
      <point x="36" y="1005" type="line"/>
      <point x="44" y="1082" type="line"/>
      <point x="216" y="1096" type="line"/>
      <point x="216" y="1137" type="line" smooth="yes"/>
      <point x="216" y="1428"/>
      <point x="318" y="1549"/>
      <point x="523" y="1549" type="curve" smooth="yes"/>
      <point x="574" y="1549"/>
      <point x="616" y="1543"/>
      <point x="676" y="1534" type="curve"/>
      <point x="667" y="1452" type="line"/>
      <point x="623" y="1457"/>
      <point x="580" y="1463"/>
      <point x="536" y="1463" type="curve" smooth="yes"/>
      <point x="381" y="1463"/>
      <point x="340" y="1372"/>
      <point x="340" y="1131" type="curve" smooth="yes"/>
      <point x="340" y="1096" type="line"/>
      <point x="835" y="1096" type="line"/>
      <point x="835" y="1137" type="line" smooth="yes"/>
      <point x="835" y="1428"/>
      <point x="937" y="1549"/>
      <point x="1142" y="1549" type="curve" smooth="yes"/>
      <point x="1253" y="1549"/>
      <point x="1431" y="1520"/>
      <point x="1536" y="1505" type="curve"/>
      <point x="1536" y="250" type="line" smooth="yes"/>
      <point x="1536" y="109"/>
      <point x="1592" y="74"/>
      <point x="1683" y="74" type="curve" smooth="yes"/>
      <point x="1744" y="74"/>
      <point x="1790" y="86"/>
      <point x="1833" y="97" type="curve"/>
      <point x="1838" y="1" type="line"/>
      <point x="1797" y="-9"/>
      <point x="1719" y="-23"/>
    </contour>
  </outline>
</glyph>
<glyph name="fj" format="1">
  <advance width="1170"/>
  <outline>
    <contour>
      <point x="923" y="1321" type="line"/>
      <point x="923" y="1488" type="line"/>
      <point x="1048" y="1488" type="line"/>
      <point x="1048" y="1321" type="line"/>
    </contour>
    <contour>
      <point x="704" y="-550" type="line"/>
      <point x="685" y="-450" type="line"/>
      <point x="734" y="-450" type="line" smooth="yes"/>
      <point x="924" y="-450"/>
      <point x="923" y="-384"/>
      <point x="923" y="-219" type="curve" smooth="yes"/>
      <point x="923" y="1005" type="line"/>
      <point x="340" y="1005" type="line"/>
      <point x="340" y="0" type="line"/>
      <point x="216" y="0" type="line"/>
      <point x="216" y="1005" type="line"/>
      <point x="36" y="1005" type="line"/>
      <point x="44" y="1082" type="line"/>
      <point x="216" y="1096" type="line"/>
      <point x="216" y="1137" type="line" smooth="yes"/>
      <point x="216" y="1428"/>
      <point x="318" y="1549"/>
      <point x="523" y="1549" type="curve" smooth="yes"/>
      <point x="574" y="1549"/>
      <point x="616" y="1543"/>
      <point x="676" y="1534" type="curve"/>
      <point x="667" y="1452" type="line"/>
      <point x="623" y="1457"/>
      <point x="581" y="1463"/>
      <point x="537" y="1463" type="curve" smooth="yes"/>
      <point x="382" y="1463"/>
      <point x="340" y="1372"/>
      <point x="340" y="1131" type="curve" smooth="yes"/>
      <point x="340" y="1096" type="line"/>
      <point x="1048" y="1096" type="line"/>
      <point x="1048" y="-247" type="line" smooth="yes"/>
      <point x="1048" y="-488"/>
      <point x="990" y="-550"/>
      <point x="753" y="-550" type="curve" smooth="yes"/>
    </contour>
  </outline>
</glyph>
<glyph name="foundryicon" format="1">
  <advance width="1351"/>
  <outline>
    <contour>
      <point x="675" y="1338" type="line"/>
      <point x="820" y="893" type="line"/>
      <point x="1288" y="893" type="line"/>
      <point x="909" y="618" type="line"/>
      <point x="1054" y="173" type="line"/>
      <point x="675" y="448" type="line"/>
      <point x="297" y="173" type="line"/>
      <point x="442" y="618" type="line"/>
      <point x="63" y="893" type="line"/>
      <point x="531" y="893" type="line"/>
    </contour>
  </outline>
</glyph>
